<svg id="Layer_1" data-name="Layer 1" xmlns="http://www.w3.org/2000/svg" viewBox="0 0 512 512"><defs><style>.cls-1{fill:#fca748}</style></defs><title>Artboard 1 copy 5</title><path class="cls-1" d="M260.63,131.82h6.57a73,73,0,0,1,18.95,2.37,63.14,63.14,0,0,1,14.21,5.38,47.42,47.42,0,0,1,8.61,6.14q3.66,3.34,4.31,4.63-1.29,6-3,13.89A73.57,73.57,0,0,0,308.53,180q0,6.68,7,12.06t17.55,5.38q10.33,0,14.86-6.78t4.52-16.47a44,44,0,0,0-5.27-20,60.85,60.85,0,0,0-15.61-18.95q-10.33-8.61-26.7-14.43T267.2,114.6h-6.57Z"/><path class="cls-1" d="M251.22,380.48l-1.68,0q-22.18-.21-37.57-7.11t-21.64-18.09q1.07-4.3,5.17-16t4.09-17.55q0-7.75-6.46-13.46t-17.87-5.71q-10.12,0-15.72,6.78t-5.6,19.48q0,28.85,26.48,48.34t69.11,20.35l1.68,0Z"/><path class="cls-1" d="M214.66,258.2q11.41,4.74,18.41,7.32l2.87,1.06v31.59H210.22l41,67.65V78H235.94v37.59a94.38,94.38,0,0,0-48.19,20.92q-25.84,21.31-25.84,52.32,0,26.27,14,42.74T214.66,258.2Zm-.22-114.54a49.73,49.73,0,0,1,21.49-10.42v88l-.18-.07q-17.87-7.32-26.7-18.52t-8.83-29.93Q200.24,155.51,214.45,143.66Z"/><path class="cls-1" d="M353.21,288.13a60.88,60.88,0,0,0-13.46-19.59,87,87,0,0,0-19.81-14.75,205.28,205.28,0,0,0-24.54-11.3q-8.4-3.23-14.1-5.49c-1.59-.63-3.34-1.3-5.24-2V213.83h25.72l-41.15-67.89V434h15.43V396.2q33.3-4.36,56.16-24.64,25.84-22.93,25.84-56.73Q358.05,299.33,353.21,288.13ZM305,366q-10.27,10.45-28.92,13.38V279.48l1.26.47q22,8.61,31.11,21.64t9.15,30.68Q317.58,353.15,305,366Z"/></svg>
